<svg width="98" height="96" viewBox="0 0 98 96" fill="none" xmlns="http://www.w3.org/2000/svg">
<rect x="44" width="7" height="96" fill="#1A1919"/>
<rect x="22" y="89" width="50" height="7" fill="#1A1919"/>
<path fill-rule="evenodd" clip-rule="evenodd" d="M76.6548 18.5582L50.3937 9L48 15.5766L76.1907 25.8372L76.2443 25.6901L76.3943 26.1023L97.0675 18.5779L94.6733 12L76.6548 18.5582Z" fill="#1A1919"/>
<path fill-rule="evenodd" clip-rule="evenodd" d="M18.1564 25.1863L0 18.5779L2.39417 12L19.1711 18.1063L44.1904 9L46.5845 15.5778L18.3938 25.8384L18.1564 25.1863Z" fill="#1A1919"/>
<path fill-rule="evenodd" clip-rule="evenodd" d="M11.0473 47.7153L18.7149 26.6487L26.2665 47.3963C22.8931 50.7619 19.6289 51.3616 16.8985 50.8292C14.5756 50.3763 12.5294 49.0812 11.0473 47.7153ZM9.25465 46.7931L17.5506 24L18.7149 24.4238L19.8792 24L28.366 47.3172L28.7557 47.6548C24.6276 52.4197 20.2949 53.5292 16.5157 52.7923C12.8316 52.0739 9.85338 49.6371 8.22363 47.6305L9.25465 46.7931Z" fill="black"/>
<path d="M18.7149 26.6487L20.1245 26.1357L18.7149 22.263L17.3054 26.1357L18.7149 26.6487ZM11.0473 47.7153L9.63779 47.2023L9.29604 48.1413L10.0308 48.8184L11.0473 47.7153ZM26.2665 47.3963L27.3259 48.4582L28.0033 47.7824L27.676 46.8833L26.2665 47.3963ZM16.8985 50.8292L17.1856 49.357L17.1856 49.357L16.8985 50.8292ZM9.25465 46.7931L10.2003 47.9574L10.5223 47.6959L10.6642 47.3061L9.25465 46.7931ZM17.5506 24L18.0637 22.5905L16.6541 22.0775L16.1411 23.487L17.5506 24ZM18.7149 24.4238L18.2019 25.8333L18.7149 26.02L19.2279 25.8333L18.7149 24.4238ZM19.8792 24L21.2888 23.487L20.7758 22.0774L19.3662 22.5905L19.8792 24ZM28.366 47.3172L26.9565 47.8303L27.0896 48.1961L27.3838 48.451L28.366 47.3172ZM28.7557 47.6548L29.8894 48.637L30.8716 47.5033L29.7379 46.5211L28.7557 47.6548ZM16.5157 52.7923L16.2287 54.2645L16.2287 54.2645L16.5157 52.7923ZM8.22363 47.6305L7.27796 46.4661L6.11361 47.4118L7.05929 48.5761L8.22363 47.6305ZM17.3054 26.1357L9.63779 47.2023L12.4569 48.2284L20.1245 27.1618L17.3054 26.1357ZM27.676 46.8833L20.1245 26.1357L17.3054 27.1618L24.8569 47.9094L27.676 46.8833ZM16.6114 52.3015C19.8599 52.9349 23.6211 52.1544 27.3259 48.4582L25.207 46.3344C22.1651 49.3693 19.3979 49.7883 17.1856 49.357L16.6114 52.3015ZM10.0308 48.8184C11.6507 50.3112 13.939 51.7804 16.6114 52.3015L17.1856 49.357C15.2121 48.9722 13.4082 47.8512 12.0638 46.6123L10.0308 48.8184ZM10.6642 47.3061L18.9602 24.513L16.1411 23.487L7.84511 46.2801L10.6642 47.3061ZM17.0376 25.4096L18.2019 25.8333L19.2279 23.0142L18.0637 22.5905L17.0376 25.4096ZM19.2279 25.8333L20.3923 25.4095L19.3662 22.5905L18.2019 23.0142L19.2279 25.8333ZM18.4697 24.513L26.9565 47.8303L29.7756 46.8042L21.2888 23.487L18.4697 24.513ZM27.3838 48.451L27.7735 48.7885L29.7379 46.5211L29.3482 46.1835L27.3838 48.451ZM27.622 46.6726C23.8017 51.0822 19.9921 51.9419 16.8028 51.32L16.2287 54.2645C20.5976 55.1164 25.4535 53.7572 29.8894 48.637L27.622 46.6726ZM16.8028 51.32C13.5656 50.6888 10.8717 48.5116 9.38798 46.6848L7.05929 48.5761C8.83509 50.7626 12.0977 53.459 16.2287 54.2645L16.8028 51.32ZM9.16931 48.7948L10.2003 47.9574L8.30897 45.6287L7.27796 46.4661L9.16931 48.7948Z" fill="black"/>
<path fill-rule="evenodd" clip-rule="evenodd" d="M76.715 27.6485L69.0473 48.7153C70.5294 50.0812 72.5756 51.3763 74.8985 51.8292C77.6289 52.3616 80.8931 51.7618 84.2666 48.3962L76.715 27.6485ZM86.3662 48.3174L86.7557 48.6548C82.6276 53.4197 78.2949 54.5292 74.5157 53.7923C70.8316 53.0739 67.8534 50.6371 66.2236 48.6305L67.2546 47.7931L75.5506 25L76.715 25.4238L77.8794 25L86.3662 48.3174Z" fill="black"/>
<path d="M69.0473 48.7153L67.6378 48.2023L67.296 49.1413L68.0308 49.8184L69.0473 48.7153ZM76.715 27.6485L78.1246 27.1355L76.715 23.2628L75.3055 27.1355L76.715 27.6485ZM74.8985 51.8292L75.1856 50.357L75.1856 50.357L74.8985 51.8292ZM84.2666 48.3962L85.326 49.4581L86.0034 48.7823L85.6761 47.8832L84.2666 48.3962ZM86.7557 48.6548L87.8894 49.637L88.8716 48.5033L87.7379 47.5211L86.7557 48.6548ZM86.3662 48.3174L84.9567 48.8305L85.0898 49.1962L85.384 49.4511L86.3662 48.3174ZM74.5157 53.7923L74.2287 55.2645L74.2287 55.2645L74.5157 53.7923ZM66.2236 48.6305L65.278 47.4661L64.1136 48.4118L65.0593 49.5761L66.2236 48.6305ZM67.2546 47.7931L68.2003 48.9574L68.5223 48.6959L68.6642 48.3061L67.2546 47.7931ZM75.5506 25L76.0637 23.5905L74.6541 23.0775L74.1411 24.487L75.5506 25ZM76.715 25.4238L76.202 26.8333L76.715 27.0201L77.228 26.8333L76.715 25.4238ZM77.8794 25L79.2889 24.487L78.7759 23.0774L77.3664 23.5905L77.8794 25ZM70.4569 49.2284L78.1246 28.1616L75.3055 27.1355L67.6378 48.2023L70.4569 49.2284ZM75.1856 50.357C73.2121 49.9722 71.4082 48.8512 70.0638 47.6123L68.0308 49.8184C69.6507 51.3112 71.939 52.7804 74.6114 53.3015L75.1856 50.357ZM83.2071 47.3344C80.1651 50.3693 77.3979 50.7883 75.1856 50.357L74.6114 53.3015C77.8599 53.9349 81.6212 53.1544 85.326 49.4581L83.2071 47.3344ZM85.6761 47.8832L78.1246 27.1355L75.3055 28.1616L82.857 48.9093L85.6761 47.8832ZM87.7379 47.5211L87.3484 47.1837L85.384 49.4511L85.7735 49.7885L87.7379 47.5211ZM74.2287 55.2645C78.5976 56.1164 83.4535 54.7572 87.8894 49.637L85.622 47.6726C81.8017 52.0822 77.9921 52.9419 74.8028 52.32L74.2287 55.2645ZM65.0593 49.5761C66.8351 51.7626 70.0977 54.459 74.2287 55.2645L74.8028 52.32C71.5656 51.6888 68.8717 49.5116 67.388 47.6848L65.0593 49.5761ZM66.309 46.6287L65.278 47.4661L67.1693 49.7948L68.2003 48.9574L66.309 46.6287ZM74.1411 24.487L65.8451 47.2801L68.6642 48.3061L76.9602 25.513L74.1411 24.487ZM77.228 24.0143L76.0637 23.5905L75.0376 26.4096L76.202 26.8333L77.228 24.0143ZM77.228 26.8333L78.3924 26.4095L77.3664 23.5905L76.202 24.0143L77.228 26.8333ZM76.4698 25.513L84.9567 48.8305L87.7758 47.8044L79.2889 24.487L76.4698 25.513Z" fill="black"/>
</svg>
