<svg width="100" height="65" viewBox="0 0 100 65" fill="none" xmlns="http://www.w3.org/2000/svg">
<path d="M34 17.5L20.5 44H49M34 17.5L49 44M34 17.5H72M34 17.5C34 17.5 31.5 11 31 9M49 44L72 17.5M72 17.5L80 44M72 17.5L70.5 5H62.4482C61.5125 5 60.6063 4.67194 59.8875 4.07289L58 2.5M31 9L37.3925 7.72149C38.6092 7.47817 38.3819 5.67597 37.1429 5.74234L23 6.5M31 9L24.2983 11.0943C23.6543 11.2955 23 10.8144 23 10.1398V6.5M31 9C31 9 27.4027 9.99663 25.5 9C24.2769 8.35934 23 6.5 23 6.5" stroke="black" stroke-width="4"/>
<path d="M34 17.5L20.5 44H49M34 17.5L49 44M34 17.5H72M34 17.5C34 17.5 31.5 11 31 9M49 44L72 17.5M72 17.5L80 44M72 17.5L70.5 5H62.4482C61.5125 5 60.6063 4.67194 59.8875 4.07289L58 2.5M31 9L37.3925 7.72149C38.6092 7.47817 38.3819 5.67597 37.1429 5.74234L23 6.5M31 9L24.2983 11.0943C23.6543 11.2955 23 10.8144 23 10.1398V6.5M31 9C31 9 27.4027 9.99663 25.5 9C24.2769 8.35934 23 6.5 23 6.5" stroke="black" stroke-width="4"/>
<circle cx="20" cy="45" r="18.5" stroke="black" stroke-width="3"/>
<circle cx="80" cy="45" r="18.5" stroke="black" stroke-width="3"/>
</svg>
