<svg width="51" height="51" viewBox="0 0 51 51" fill="none" xmlns="http://www.w3.org/2000/svg">
<path d="M33.375 6.9353H2.125V34.0186H33.375V6.9353Z" stroke="black" stroke-width="2" stroke-linecap="round" stroke-linejoin="round"/>
<path d="M33.375 17.352H41.7083L47.9583 23.602V34.0187H33.375V17.352Z" stroke="black" stroke-width="2" stroke-linecap="round" stroke-linejoin="round"/>
<path d="M11.5003 44.4353C14.3768 44.4353 16.7087 42.1034 16.7087 39.2269C16.7087 36.3505 14.3768 34.0186 11.5003 34.0186C8.62384 34.0186 6.29199 36.3505 6.29199 39.2269C6.29199 42.1034 8.62384 44.4353 11.5003 44.4353Z" stroke="black" stroke-width="2" stroke-linecap="round" stroke-linejoin="round"/>
<path d="M38.5833 44.4353C41.4598 44.4353 43.7917 42.1034 43.7917 39.2269C43.7917 36.3505 41.4598 34.0186 38.5833 34.0186C35.7069 34.0186 33.375 36.3505 33.375 39.2269C33.375 42.1034 35.7069 44.4353 38.5833 44.4353Z" stroke="black" stroke-width="2" stroke-linecap="round" stroke-linejoin="round"/>
</svg>
