<svg width="176" height="128" viewBox="0 0 176 128" fill="none" xmlns="http://www.w3.org/2000/svg">
<path fill-rule="evenodd" clip-rule="evenodd" d="M32.4561 2.52472C14.2975 3.35011 0 18.3123 0 36.4897V91.5103C0 109.688 14.2975 124.65 32.4562 125.475L88 128L143.544 125.475C161.702 124.65 176 109.688 176 91.5103V36.4897C176 18.3123 161.702 3.35011 143.544 2.52472L88 0L32.4561 2.52472ZM71.5 39.2494C71.5 38.4758 72.3408 37.9951 73.0074 38.3877L115.077 63.1619C115.724 63.5432 115.736 64.4756 115.098 64.8726L73.0283 91.0491C72.3622 91.4635 71.5 90.9845 71.5 90.2V39.2494Z" fill="black"/>
</svg>
